# xmcd
#
# Track frame offsets: 
#        150
#        18086
#        37377
#        55544
#        75704
#        91155
#        112886
#        133194
#        151998
#        167576
#        186018
#        206770
#
# Disc length: 3001 seconds
#
# Revision: 0
# Processed by: cddbd v1.5.2PL0 Copyright (c) Steve Scherf et al.
# Submitted via: ExactAudioCopyFreeDBPlugin 1.0
#
DISCID=920bb70c
DTITLE=เทียรี่ เมฆวัฒนา - หอมดินกลิ่นทุ่ง แผ่น 2
DYEAR=1900
DGENRE=Comedy
TTITLE0=รักนี้มีกรรม
TTITLE1=หนาวลมที่เรณู
TTITLE2=สัญญาเมื่อสายัณห์
TTITLE3=ลารักจากสวนแตง
TTITLE4=บัวตูมบัวบาน
TTITLE5=รอทั้งปี
TTITLE6=ถอนคำสาบาน
TTITLE7=โปรดเถิดดวงใจ
TTITLE8=ใช่แล้วสิ
TTITLE9=วาสนาพี่น้อย
TTITLE10=น้ำท่วม
TTITLE11=อยากไปให้พ้น
EXTD=
EXTT0=
EXTT1=
EXTT2=
EXTT3=
EXTT4=
EXTT5=
EXTT6=
EXTT7=
EXTT8=
EXTT9=
EXTT10=
EXTT11=
PLAYORDER=
